<svg width="18" height="16" viewBox="0 0 18 16" fill="none" xmlns="http://www.w3.org/2000/svg">
<path d="M3.44531 0C7.14841 0 10.8516 0 14.5547 0C14.6672 0.0261978 14.758 0.0825494 14.8242 0.18022C15.2944 0.874725 15.7657 1.56844 16.2367 2.26242C16.7389 3.00246 17.2423 3.74163 17.742 4.48325C17.8369 4.624 17.9578 4.75086 18 4.92308V5.02857C17.9792 5.10374 17.9488 5.17283 17.8984 5.23472C17.4642 5.76879 17.0314 6.304 16.5982 6.83886C15.8121 7.80967 15.026 8.78066 14.2399 9.75138C13.4122 10.7734 12.5844 11.7953 11.7567 12.8171C10.9557 13.8062 10.1542 14.7946 9.35473 15.7849C9.27466 15.884 9.19081 15.9713 9.06152 15.9999H8.93848C8.81112 15.9712 8.72622 15.8875 8.648 15.7884C8.44919 15.5368 8.24546 15.289 8.04357 15.0397C7.24351 14.052 6.44326 13.0644 5.64328 12.0765C4.75752 10.9828 3.87211 9.88888 2.98644 8.79516C2.03985 7.62637 1.09336 6.45749 0.146074 5.28932C0.0818262 5.21029 0.0197754 5.13169 0 5.02857C0 4.99341 0 4.95824 0 4.92308C0.0246973 4.86576 0.0420996 4.80378 0.075498 4.75209C0.17543 4.59719 0.281777 4.44642 0.3854 4.29389C1.31546 2.92466 2.24552 1.55543 3.17522 0.185934C3.22251 0.116308 3.27973 0.0597802 3.35856 0.0282198C3.38669 0.016967 3.41631 0.00931868 3.44531 0ZM12.0238 6.00299H5.97612C6.98353 8.53503 7.98908 11.0624 8.99473 13.5899C8.99842 13.5894 9.0022 13.5888 9.00589 13.5884C10.0113 11.0615 11.0167 8.53451 12.0238 6.00299ZM5.97428 4.49591H12.0288C11.9646 4.37679 11.9035 4.26356 11.8425 4.15033C11.3749 3.28149 10.9071 2.41275 10.4402 1.54356C10.4241 1.51358 10.4068 1.49969 10.37 1.49969C9.45466 1.50092 8.53937 1.50084 7.62416 1.49996C7.59199 1.49996 7.57494 1.50971 7.55974 1.53811C7.03793 2.51077 6.51524 3.4829 5.99282 4.45521C5.98623 4.46752 5.98113 4.48079 5.97428 4.49591ZM5.8761 1.50075C5.85 1.50075 5.83163 1.50075 5.81335 1.50075C5.26263 1.50075 4.71182 1.50127 4.16109 1.49969C4.11794 1.4996 4.09307 1.51226 4.06951 1.54848C3.89865 1.81125 3.72551 2.07244 3.55298 2.33407C3.08619 3.04202 2.6194 3.74989 2.1527 4.45793C2.14515 4.46945 2.13899 4.48193 2.12985 4.49802C2.14796 4.49899 2.15938 4.50013 2.17072 4.50013C2.85478 4.50013 3.53883 4.49996 4.22288 4.50101C4.2547 4.50101 4.26894 4.48879 4.28282 4.46294C4.80375 3.49442 5.32529 2.52624 5.84666 1.55807C5.85545 1.5418 5.86362 1.52519 5.8761 1.50075ZM15.8728 4.50031C15.8597 4.47851 15.8527 4.46585 15.8447 4.4538C15.2038 3.48176 14.5627 2.50989 13.9225 1.53732C13.9039 1.50901 13.8843 1.50004 13.8515 1.50004C13.2934 1.50101 12.7353 1.50075 12.1772 1.50075C12.162 1.50075 12.1467 1.50075 12.1236 1.50075C12.1372 1.52686 12.146 1.54479 12.1555 1.56246C12.6762 2.52941 13.1971 3.49626 13.717 4.46365C13.7326 4.49275 13.7504 4.50092 13.782 4.50092C14.4601 4.50004 15.1384 4.50022 15.8165 4.50022C15.8322 4.50022 15.8479 4.50031 15.8728 4.50031ZM11.5168 10.9609C11.5196 10.9628 11.5223 10.9647 11.525 10.9666C12.7604 9.31385 13.9959 7.6611 15.2374 6.00009C15.2063 6.00009 15.1874 6.00009 15.1686 6.00009C14.6867 6.00009 14.2049 6.00009 13.723 6.00009C13.6619 6.00009 13.6193 6.02842 13.5952 6.0851C12.9808 7.52607 12.3665 8.96703 11.7522 10.4081C11.6736 10.5924 11.5952 10.7766 11.5168 10.9609ZM6.47525 10.967C6.47789 10.9656 6.48062 10.9641 6.48325 10.9627C6.47903 10.9524 6.47481 10.942 6.47042 10.9317C6.25395 10.4242 6.03747 9.91657 5.82082 9.40905C5.34164 8.28633 4.86211 7.1636 4.3839 6.04044C4.36975 6.00712 4.35155 5.9993 4.31815 5.99938C3.81735 6.00035 3.31646 6 2.81566 6.00018C2.80055 6.00018 2.78543 6.00176 2.76161 6.00316C4.00324 7.66277 5.23925 9.3149 6.47525 10.967Z" fill="#C6CCD6"/>
</svg>
