<svg width="17" height="17" viewBox="0 0 17 17" fill="none" xmlns="http://www.w3.org/2000/svg">
<path d="M3.88647 8.73218C5.25674 8.7312 5.98485 8.7319 6.39331 8.74487C6.79981 8.75779 6.90748 8.78187 7.02222 8.84058C7.26893 8.96683 7.44242 9.14523 7.57202 9.40112C7.5984 9.45322 7.6155 9.51653 7.62769 9.61597C7.63982 9.71513 7.64809 9.85769 7.65405 10.072C7.666 10.5019 7.6687 11.2346 7.6687 12.5183C7.6687 13.8017 7.666 14.5338 7.65405 14.9636C7.64809 15.1779 7.63981 15.3205 7.62769 15.4197C7.6155 15.5191 7.59839 15.5824 7.57202 15.6345C7.44195 15.8913 7.26837 16.0686 7.01929 16.196C6.90251 16.2558 6.80094 16.2804 6.3894 16.2917C5.97659 16.3031 5.23415 16.3006 3.82202 16.2937L0.868896 16.28L0.837646 16.2791L0.811279 16.2615L0.587646 16.1033C0.453327 16.0086 0.290556 15.831 0.221436 15.699C0.191979 15.6427 0.167079 15.5901 0.14917 15.4968C0.132211 15.4084 0.122045 15.2839 0.11499 15.0818C0.100842 14.6763 0.100342 13.9353 0.100342 12.4919V9.50952L0.11792 9.48413L0.244873 9.29956C0.40902 9.06193 0.565097 8.92248 0.791748 8.81714C0.841756 8.7939 0.917451 8.78095 1.02417 8.77124C1.13505 8.76116 1.29342 8.75341 1.51929 8.7478C1.97212 8.73657 2.70462 8.73302 3.88647 8.73218ZM12.5173 8.73218C13.8879 8.7312 14.6167 8.73189 15.0251 8.74487C15.431 8.75778 15.5385 8.78203 15.6531 8.84058C15.8999 8.96683 16.0742 9.14518 16.2039 9.40112C16.2302 9.4532 16.2464 9.5166 16.2585 9.61597C16.2707 9.71513 16.2799 9.85763 16.2859 10.072C16.2978 10.5019 16.2996 11.2346 16.2996 12.5183C16.2996 13.8017 16.2978 14.5338 16.2859 14.9636C16.2799 15.178 16.2707 15.3205 16.2585 15.4197C16.2464 15.519 16.2302 15.5824 16.2039 15.6345C16.0738 15.8912 15.9001 16.0687 15.6511 16.196C15.5343 16.2558 15.4328 16.2804 15.0212 16.2917C14.6085 16.3031 13.8655 16.3006 12.4529 16.2937L9.50073 16.28L9.46851 16.2791L9.44312 16.2615L9.21851 16.1033C9.08423 16.0086 8.92235 15.8309 8.85327 15.699C8.82379 15.6427 8.79893 15.5902 8.78101 15.4968C8.76404 15.4084 8.75291 15.2839 8.74585 15.0818C8.7317 14.6763 8.7312 13.9353 8.7312 12.4919V9.50952L8.74878 9.48413L8.87671 9.29956C9.04083 9.062 9.19695 8.92246 9.42358 8.81714C9.47353 8.79398 9.54865 8.78094 9.65503 8.77124C9.76596 8.76114 9.92492 8.75341 10.1511 8.7478C10.6039 8.73657 11.3358 8.73302 12.5173 8.73218ZM3.8689 9.72046C2.75662 9.72046 2.08563 9.72326 1.68237 9.73413C1.4805 9.73957 1.34841 9.74715 1.26245 9.75659C1.21942 9.76132 1.19066 9.76649 1.17163 9.77124C1.15126 9.77633 1.14943 9.77852 1.15405 9.77515C1.14627 9.78082 1.14551 9.78259 1.14526 9.78296C1.14389 9.78515 1.13971 9.79337 1.13452 9.81519C1.12283 9.86461 1.11284 9.95683 1.1062 10.1394C1.09305 10.5013 1.09253 11.1873 1.09253 12.5183C1.09253 13.8574 1.0929 14.5422 1.1062 14.9021C1.11292 15.084 1.12274 15.1745 1.13452 15.2224C1.13969 15.2433 1.14406 15.2508 1.14526 15.2527C1.14539 15.2529 1.1464 15.2528 1.14722 15.2537L1.14819 15.2546C1.15866 15.257 1.17528 15.2605 1.198 15.2634C1.24308 15.2691 1.30694 15.2741 1.38745 15.2791C1.54833 15.289 1.77087 15.2967 2.03491 15.3025C2.56292 15.3141 3.25384 15.3171 3.94214 15.3132C4.63036 15.3093 5.31547 15.2985 5.83276 15.281C6.09136 15.2723 6.30696 15.2624 6.45972 15.2507C6.53633 15.2449 6.5956 15.2382 6.6355 15.2322V15.2312C6.63864 15.1949 6.6423 15.1427 6.64526 15.0759C6.65133 14.9391 6.65644 14.7432 6.66089 14.4978C6.6698 14.0068 6.6753 13.3187 6.67554 12.5076V9.83569L6.60132 9.78394C6.59631 9.78048 6.57515 9.76912 6.49487 9.75854C6.41618 9.7482 6.29343 9.7399 6.09741 9.73413C5.7063 9.72263 5.03585 9.72046 3.8689 9.72046ZM12.5007 9.72046C11.3883 9.72046 10.7175 9.72326 10.3142 9.73413C10.1124 9.73957 9.9803 9.74716 9.89429 9.75659C9.85145 9.7613 9.8225 9.76651 9.80347 9.77124C9.78309 9.77633 9.78029 9.77852 9.78491 9.77515C9.77716 9.7808 9.77734 9.78259 9.7771 9.78296C9.77583 9.78495 9.77069 9.79279 9.76538 9.81519C9.75369 9.86461 9.74468 9.95683 9.73804 10.1394C9.72489 10.5013 9.72339 11.1873 9.72339 12.5183C9.72339 13.8574 9.72474 14.5422 9.73804 14.9021C9.74476 15.084 9.75458 15.1745 9.76636 15.2224C9.77165 15.2438 9.77604 15.2511 9.7771 15.2527C9.77724 15.2529 9.77811 15.2527 9.77905 15.2537L9.78003 15.2546C9.79043 15.257 9.80637 15.2606 9.82886 15.2634C9.87387 15.2691 9.93786 15.2741 10.0183 15.2791C10.1792 15.289 10.4026 15.2967 10.6667 15.3025C11.1947 15.3141 11.8849 15.3171 12.573 15.3132C13.2614 15.3093 13.9472 15.2985 14.4646 15.281C14.7232 15.2723 14.9388 15.2624 15.0916 15.2507C15.1683 15.2449 15.2274 15.2382 15.2673 15.2322V15.2312C15.2705 15.1949 15.2732 15.1427 15.2761 15.0759C15.2822 14.9391 15.2883 14.7432 15.2927 14.4978C15.3016 14.0068 15.3062 13.3187 15.3064 12.5076V9.83569L15.2332 9.78394C15.2283 9.78057 15.2068 9.7692 15.1257 9.75854C15.0471 9.74823 14.9248 9.73989 14.7292 9.73413C14.3381 9.72263 13.6677 9.72046 12.5007 9.72046ZM3.88647 0.100342C5.25673 0.0993682 5.98485 0.100062 6.39331 0.113037C6.79981 0.125955 6.90748 0.151015 7.02222 0.209717C7.26871 0.335929 7.44248 0.513598 7.57202 0.769287C7.59841 0.821392 7.6155 0.884676 7.62769 0.984131C7.63984 1.0833 7.64809 1.22566 7.65405 1.44019C7.66601 1.87001 7.6687 2.60246 7.6687 3.88647C7.6687 5.17038 7.666 5.90296 7.65405 6.33276C7.64809 6.54713 7.63983 6.6897 7.62769 6.78882C7.61552 6.88792 7.5983 6.95069 7.57202 7.00269C7.44197 7.25941 7.26832 7.43681 7.01929 7.56421C6.9025 7.62394 6.80095 7.64952 6.3894 7.66089C5.97659 7.67227 5.23413 7.66976 3.82202 7.66284L0.868896 7.64819H0.837646L0.811279 7.62964L0.587646 7.47144C0.453327 7.37676 0.290556 7.19915 0.221436 7.06714C0.19203 7.01095 0.167055 6.95814 0.14917 6.86499C0.132242 6.77661 0.122038 6.65184 0.11499 6.44995C0.100851 6.04438 0.100342 5.30331 0.100342 3.86011V0.878662L0.11792 0.852295L0.244873 0.668701C0.40905 0.431009 0.565049 0.290656 0.791748 0.185303C0.841757 0.162081 0.9175 0.149112 1.02417 0.139404C1.13505 0.129327 1.29343 0.121571 1.51929 0.115967C1.97212 0.104735 2.70462 0.101185 3.88647 0.100342ZM12.5496 0.100342C12.6949 0.104347 12.8496 0.133793 12.9539 0.198975C12.975 0.212201 13.0041 0.236216 13.0359 0.263428C13.0695 0.292232 13.112 0.330044 13.1609 0.374756C13.2589 0.464387 13.3863 0.584843 13.533 0.725342C13.8267 1.00674 14.1991 1.37079 14.5691 1.73804C14.9391 2.10535 15.3069 2.47652 15.5925 2.77026C15.7352 2.91697 15.8581 3.04441 15.95 3.14331C16.0388 3.23894 16.1064 3.31513 16.1316 3.35327C16.3557 3.69225 16.3561 4.07759 16.1326 4.41577C16.1052 4.45708 16.0348 4.53606 15.9421 4.6355C15.8461 4.73853 15.7181 4.87105 15.5701 5.02222C15.274 5.32459 14.8942 5.70378 14.5144 6.0769C14.1347 6.44999 13.7548 6.81806 13.4587 7.09741C13.3108 7.23703 13.1828 7.35538 13.0867 7.44116C13.0387 7.48392 12.9976 7.51943 12.9656 7.54565C12.9497 7.5586 12.9352 7.56974 12.9226 7.57886C12.9117 7.58675 12.8962 7.59726 12.8806 7.60425C12.6794 7.69462 12.3823 7.68694 12.1589 7.59448C12.1307 7.58274 12.0959 7.55726 12.0652 7.53296C12.0301 7.50521 11.9862 7.46734 11.9353 7.42261C11.8332 7.33284 11.6996 7.20938 11.5457 7.06421C11.2377 6.77373 10.8457 6.39282 10.4568 6.00659C10.0678 5.62029 9.68052 5.22803 9.38257 4.91675C9.23385 4.76137 9.10677 4.62555 9.01245 4.52026C8.9653 4.46763 8.92545 4.42153 8.89526 4.38452C8.86726 4.35017 8.8415 4.31688 8.82788 4.29077C8.70597 4.05623 8.70083 3.78998 8.8064 3.53394C8.81338 3.51716 8.82413 3.50052 8.83276 3.48804C8.84254 3.47392 8.85505 3.45764 8.8689 3.44019C8.8968 3.40502 8.93411 3.36071 8.97925 3.30933C9.06998 3.20605 9.19456 3.07024 9.34155 2.91382C9.63568 2.60082 10.022 2.20237 10.4119 1.80737C10.8017 1.41234 11.1962 1.01993 11.5066 0.720459C11.6615 0.570971 11.7963 0.444241 11.8992 0.351318C11.9506 0.304894 11.9947 0.265963 12.03 0.237061C12.0614 0.211374 12.0955 0.185035 12.1228 0.172607C12.2431 0.117875 12.4026 0.0963344 12.5496 0.100342ZM12.4275 1.13257C12.3416 1.20979 12.2229 1.32045 12.0828 1.45483C11.8025 1.72349 11.4375 2.08331 11.075 2.44604C10.7124 2.80882 10.3523 3.1744 10.0837 3.45483C9.9495 3.59503 9.83862 3.71367 9.76147 3.79956C9.73064 3.83389 9.70576 3.86229 9.68726 3.88452C9.70448 3.90492 9.72658 3.93145 9.75464 3.96265C9.8283 4.04454 9.9352 4.15936 10.0681 4.29858C10.3339 4.57697 10.7014 4.95136 11.1052 5.35522L12.5056 6.75562L13.2546 6.03589C13.8629 5.45072 14.4063 4.91323 14.7976 4.51343C14.9933 4.3135 15.1506 4.14825 15.2585 4.02905C15.3125 3.96941 15.3529 3.92209 15.3796 3.88843L15.3806 3.8855C15.3637 3.86575 15.3417 3.84049 15.3142 3.8103C15.2414 3.73035 15.1354 3.61748 15.0037 3.4812C14.7404 3.20885 14.3768 2.84177 13.9763 2.44604C13.5758 2.05032 13.2035 1.69081 12.9265 1.43042C12.788 1.30018 12.6733 1.19589 12.5916 1.12378C12.56 1.09591 12.5339 1.07329 12.5134 1.0564C12.491 1.07505 12.4626 1.10104 12.4275 1.13257ZM3.8689 1.08862C2.75662 1.08862 2.08563 1.09143 1.68237 1.10229C1.4805 1.10774 1.34842 1.11531 1.26245 1.12476C1.21946 1.12948 1.19066 1.13466 1.17163 1.1394C1.16252 1.14168 1.15688 1.1432 1.15405 1.14429C1.14627 1.14996 1.14551 1.15075 1.14526 1.15112C1.14406 1.15299 1.13992 1.16151 1.13452 1.18433C1.12285 1.23386 1.11283 1.32615 1.1062 1.50854C1.09307 1.87056 1.09253 2.55588 1.09253 3.88647C1.09253 5.22537 1.09291 5.91029 1.1062 6.27026C1.11292 6.45216 1.12274 6.54268 1.13452 6.59058C1.14002 6.61293 1.14438 6.62054 1.14526 6.62183C1.14543 6.62208 1.14638 6.62201 1.14722 6.6228L1.14819 6.62378C1.15866 6.62613 1.17528 6.62871 1.198 6.63159C1.24308 6.6373 1.30692 6.64226 1.38745 6.64722C1.54833 6.65712 1.77086 6.66486 2.03491 6.67065C2.56292 6.68223 3.25384 6.68628 3.94214 6.68237C4.63036 6.67847 5.31547 6.66667 5.83276 6.64917C6.09137 6.64042 6.30696 6.63055 6.45972 6.6189C6.53635 6.61304 6.5956 6.60641 6.6355 6.60034V6.59937C6.63863 6.5631 6.64231 6.51157 6.64526 6.44507C6.65133 6.30829 6.65643 6.11246 6.66089 5.86694C6.6698 5.37593 6.6753 4.68714 6.67554 3.87573V1.20386L6.60132 1.1521C6.59607 1.14853 6.57449 1.13719 6.49487 1.12671C6.41618 1.11637 6.29343 1.10806 6.09741 1.10229C5.70629 1.09079 5.03584 1.08862 3.8689 1.08862Z" fill="#C6CCD6" stroke="#C6CCD6" stroke-width="0.2"/>
</svg>
