<svg width="17" height="16" viewBox="0 0 17 16" fill="none" xmlns="http://www.w3.org/2000/svg">
<path d="M3.99767 8.01115C4.06119 7.93924 4.11905 7.86733 4.18257 7.80113C4.80081 7.17335 5.41338 6.53985 6.04296 5.92462C6.15072 5.81847 6.33336 5.73401 6.48196 5.73401C9.88171 5.72373 13.2826 5.7283 16.6823 5.72145C16.9364 5.72145 17.0011 5.80706 17 6.05246C16.9898 7.35483 16.9886 8.65606 17 9.95843C17.0022 10.2301 16.9058 10.2917 16.6551 10.2917C13.2644 10.2849 9.87377 10.2883 6.4831 10.2815C6.35491 10.2815 6.19383 10.2347 6.10535 10.149C5.42018 9.48131 4.74976 8.79874 4.07594 8.12073C4.05098 8.09562 4.03283 8.06138 3.99767 8.01115ZM15.8724 9.16057C15.8724 8.4643 15.8633 7.81825 15.8769 7.17335C15.8826 6.93479 15.8066 6.8663 15.5718 6.86744C12.6893 6.87429 9.80797 6.87201 6.92551 6.87429C6.83362 6.87429 6.70998 6.86744 6.65439 6.91995C6.28231 7.27722 5.92385 7.64932 5.53816 8.04083C5.85238 8.35016 6.15073 8.62638 6.42865 8.92315C6.5886 9.09323 6.75535 9.16856 6.99584 9.16742C9.83974 9.15943 12.6836 9.16171 15.5287 9.16171C15.6296 9.16171 15.7317 9.16171 15.8713 9.16171L15.8724 9.16057Z" fill="#C6CCD6"/>
<path d="M3.94435 2.26179C4.49566 1.72874 5.06626 1.25162 5.54383 0.693464C5.99645 0.164984 6.49217 -0.0119375 7.18528 0.00061823C9.57543 0.0462753 11.9678 0.0223054 14.3591 0.0120325C14.6438 0.0108911 14.7255 0.0816596 14.721 0.375006C14.704 1.67737 14.7096 2.98088 14.7176 4.28325C14.7187 4.50126 14.6677 4.58345 14.434 4.58231C11.7784 4.57546 9.12167 4.57888 6.46608 4.57432C6.36058 4.57432 6.22219 4.55491 6.15413 4.48757C5.43379 3.77532 4.72481 3.05165 3.94322 2.26064L3.94435 2.26179ZM5.55291 2.33712C5.91251 2.69324 6.25736 3.04366 6.61469 3.37924C6.67368 3.43403 6.78825 3.44887 6.87673 3.44887C9.03206 3.45229 11.1874 3.44887 13.3427 3.45572C13.5401 3.45572 13.6059 3.39751 13.6025 3.19547C13.5911 2.6065 13.59 2.01638 13.6025 1.42626C13.607 1.2014 13.514 1.15917 13.3155 1.15917C11.1794 1.16487 9.0434 1.16259 6.90622 1.16373C6.82341 1.16373 6.71111 1.15688 6.66233 1.20482C6.29252 1.56666 5.93519 1.94219 5.55291 2.33598V2.33712Z" fill="#C6CCD6"/>
<path d="M3.94208 13.6761C4.37428 13.2651 4.79514 12.8725 5.20805 12.4707C5.49278 12.1933 5.75596 11.8909 6.05203 11.6261C6.16547 11.5245 6.3447 11.4423 6.49331 11.4423C9.13982 11.4309 11.7863 11.4366 14.4329 11.4309C14.6541 11.4309 14.7221 11.4914 14.7199 11.7231C14.7085 13.0448 14.7085 14.3666 14.7199 15.6884C14.7221 15.9224 14.6586 16 14.4192 16C11.7727 15.9932 9.12621 15.9966 6.4797 15.9909C6.36626 15.9909 6.21765 15.9658 6.14392 15.8927C5.42926 15.1873 4.72707 14.4693 3.94435 13.6772L3.94208 13.6761ZM5.5461 13.7423C5.9125 14.1064 6.25622 14.4568 6.61355 14.7935C6.67254 14.8483 6.78598 14.8643 6.87446 14.8643C9.02979 14.8677 11.1851 14.8643 13.3393 14.8711C13.5333 14.8711 13.6059 14.8186 13.6014 14.6143C13.59 14.0253 13.5889 13.4352 13.6014 12.8451C13.6059 12.6225 13.5174 12.5746 13.3166 12.5757C11.1806 12.5814 9.04454 12.578 6.90849 12.5814C6.81774 12.5814 6.69523 12.5814 6.63964 12.6351C6.27437 12.9889 5.92271 13.3565 5.54496 13.7423H5.5461Z" fill="#C6CCD6"/>
<path d="M1.12881 1.20026C1.7981 1.20482 2.2303 1.64085 2.22916 2.30972C2.22803 2.97289 1.75613 3.44316 1.10386 3.43403C0.450451 3.4249 -0.00783908 2.94778 0.0001016 2.28347C0.00804228 1.63058 0.460661 1.19569 1.12881 1.20026Z" fill="#C6CCD6"/>
<path d="M0.000100849 8.02827C-0.0033023 7.35141 0.439106 6.90853 1.11974 6.90739C1.78902 6.90739 2.22576 7.33999 2.22916 8.00773C2.23257 8.67204 1.76633 9.14573 1.11293 9.14117C0.468601 9.13774 0.00350424 8.6709 0.00123547 8.02713L0.000100849 8.02827Z" fill="#C6CCD6"/>
<path d="M1.12768 12.6145C1.79696 12.618 2.22916 13.054 2.22803 13.7229C2.2269 14.386 1.75613 14.8574 1.10386 14.8483C0.450451 14.8392 -0.00783908 14.3621 0.0001016 13.6977C0.00804228 13.0437 0.459526 12.61 1.12768 12.6134V12.6145Z" fill="#C6CCD6"/>
</svg>
